<?xml version="1.0" encoding="utf-8"?>
<!-- Generator: Adobe Illustrator 17.0.0, SVG Export Plug-In . SVG Version: 6.00 Build 0)  -->
<!DOCTYPE svg PUBLIC "-//W3C//DTD SVG 1.0//EN" "http://www.w3.org/TR/2001/REC-SVG-20010904/DTD/svg10.dtd">
<svg version="1.0" xmlns="http://www.w3.org/2000/svg" xmlns:xlink="http://www.w3.org/1999/xlink" x="0px" y="0px" width="580px"
	 height="480px" viewBox="0 0 580 480" enable-background="new 0 0 580 480" xml:space="preserve">
<g id="Layer_1" xmlns:sketch="http://www.bohemiancoding.com/sketch/ns" display="none">
	<title>santa580x480</title>
	<desc>Created with Sketch.</desc>
	<g display="inline">
		<path fill="#FFB8C1" d="M218.001,172.104c4.289,0,145.071,0,146.735,0c0-19.888,54.224-44.072,54.224,15.3
			c6.727-2.465,13.303-5.001,25.58,0C438.595,29.454,234.975,54.204,218.001,172.104z"/>
		<path fill="#4990E2" d="M413.74,98.726c-19.529-17.984-46.371-27.888-75.58-27.888c-28.977,0-57.592,9.413-80.574,26.506
			c-25.146,18.703-40.697,44.286-44.973,73.985l-0.895,6.218h158.459v-5.442c0-6.993,12.034-16.722,23.88-16.722
			c12.549,0,19.46,11.373,19.46,32.022l7.579,5.013c3.581-1.313,6.674-2.447,10.523-2.447c3.225,0,6.78,0.809,10.868,2.474
			l7.491-5.245C448.573,149.857,436.042,119.263,413.74,98.726z M431.619,179.086c-2.766,0-5.242,0.379-7.507,0.933
			c-0.876-10.697-3.738-19.169-8.541-25.247c-5.311-6.722-12.75-10.275-21.514-10.275c-14.927,0-30.099,10.469-33.874,22.164
			H224.477c6.266-30.221,24.724-49.516,39.605-60.585c20.81-15.478,47.811-24.355,74.078-24.355c26.47,0,50.693,8.882,68.207,25.01
			c18.587,17.116,29.664,42.284,32.265,73.124C436.216,179.34,433.889,179.086,431.619,179.086z"/>
	</g>
	<g display="inline">
		<path fill="#4990E2" d="M210.114,194.946v108.031c0,28.542,8.59,52.669,24.843,69.777c14.611,15.379,34.212,23.851,55.192,23.854
			c0.005,0,0.007,0,0.013,0c20.837,0,40.205-8.401,54.531-23.654c15.971-17.005,24.413-41.202,24.413-69.977V194.946H210.114z
			 M358.221,302.978c0,25.955-7.422,47.576-21.463,62.525c-12.248,13.039-28.796,20.221-46.597,20.221c-0.003,0-0.007,0-0.011,0
			c-17.968-0.003-34.767-7.272-47.303-20.467c-14.294-15.046-21.849-36.581-21.849-62.28v-97.147h137.223V302.978z"/>
		<ellipse fill="#FFB8C1" cx="244.542" cy="278.956" rx="14.434" ry="14.456"/>
		<ellipse fill="#FFB8C1" cx="335.051" cy="278.956" rx="14.434" ry="14.456"/>
		<ellipse fill="#556270" cx="290.238" cy="317.926" rx="14.434" ry="14.456"/>
		<path fill="#4990E2" d="M290.238,298.027c-10.96,0-19.876,8.927-19.876,19.899c0,10.972,8.917,19.899,19.876,19.899
			c10.959,0,19.876-8.927,19.876-19.899C310.114,306.954,301.197,298.027,290.238,298.027z M290.238,326.94
			c-4.958,0-8.992-4.044-8.992-9.014s4.034-9.014,8.992-9.014c4.958,0,8.992,4.044,8.992,9.014S295.196,326.94,290.238,326.94z"/>
		<rect x="231.569" y="235.391" fill="#4990E2" width="25.946" height="10.884"/>
		<rect x="322.078" y="235.391" fill="#4990E2" width="25.946" height="10.884"/>
	</g>
	<g display="inline">
		<ellipse fill="#FFFFFF" cx="433.07" cy="168.333" rx="27.927" ry="27.97"/>
		<path fill="#4990E2" d="M433.07,134.921c-18.4,0-33.369,14.989-33.369,33.412c0,18.424,14.969,33.412,33.369,33.412
			s33.369-14.989,33.369-33.412C466.44,149.909,451.47,134.921,433.07,134.921z M433.07,190.861
			c-12.398,0-22.485-10.106-22.485-22.528s10.086-22.528,22.485-22.528c12.398,0,22.485,10.106,22.485,22.528
			S445.469,190.861,433.07,190.861z"/>
	</g>
	<g display="inline">
		<path fill="#FFFFFF" d="M369.105,168.333H211.488c-4.133,0-7.483,3.35-7.483,7.483v34.689c0,4.133,3.35,7.483,7.483,7.483h157.617
			c4.133,0,7.483-3.35,7.483-7.483v-34.689C376.588,171.683,373.238,168.333,369.105,168.333z"/>
		<path fill="#4990E2" d="M369.105,162.891H211.488c-7.127,0-12.925,5.798-12.925,12.925v34.689c0,7.127,5.798,12.925,12.925,12.925
			h157.617c7.127,0,12.925-5.798,12.925-12.925v-34.689C382.03,168.689,376.232,162.891,369.105,162.891z M371.145,210.505
			c0,1.125-0.915,2.041-2.041,2.041H211.488c-1.125,0-2.041-0.915-2.041-2.041v-34.689c0-1.125,0.915-2.041,2.041-2.041h157.617
			c1.125,0,2.041,0.915,2.041,2.041V210.505z"/>
	</g>
</g>
<g id="Layer_2">
	<g>
		<g>
			<path fill="#FFFFFF" d="M198.167,276.08c-0.005-0.013-0.01-0.026-0.015-0.039C198.12,276.041,198.128,276.055,198.167,276.08z"/>
			<path fill="#FFFFFF" d="M300.321,271.091c-2.204-1.391-4.757-2.714-7.681-3.952c-0.593-0.335-1.187-0.677-1.78-1.026
				c-0.131,0.05-0.261,0.099-0.39,0.149c-0.13-0.05-0.26-0.1-0.39-0.149c-0.594,0.349-1.187,0.691-1.78,1.026
				c-2.924,1.238-5.477,2.561-7.681,3.952c-42.029,19.609-81.163,5.815-82.45,4.989c18.581,50.236,64.903,51.396,92.302,37.489
				c27.399,13.907,73.721,12.746,92.302-37.489C381.484,276.907,342.35,290.7,300.321,271.091z"/>
			<path fill="#FFFFFF" d="M382.785,276.041c-0.005,0.013-0.01,0.026-0.015,0.039C382.809,276.055,382.817,276.041,382.785,276.041z
				"/>
		</g>
		<path fill="#4990E2" d="M381.26,270.598l-2.724,1.237c-4.149,1.322-15.155,4.283-30.343,4.284
			c-15.962,0-31.192-3.304-45.274-9.821c-2.335-1.449-4.979-2.809-7.866-4.046c-0.478-0.272-0.958-0.549-1.436-0.83l-2.24-1.317
			l-0.909,0.341l-0.909-0.341l-2.24,1.317c-0.478,0.282-0.957,0.558-1.436,0.83c-2.887,1.238-5.531,2.598-7.867,4.046
			c-14.081,6.517-29.311,9.821-45.274,9.821c-15.188,0-26.194-2.962-30.343-4.284l-2.726-1.237l-12.172-7.665l4.926,13.318
			l1.299,3.464c6.17,15.808,15.393,27.904,27.435,35.973c10.689,7.162,23.54,10.948,37.164,10.948
			c10.958,0,22.265-2.482,32.144-7.024c9.879,4.542,21.186,7.024,32.144,7.024c13.625,0,26.477-3.785,37.165-10.947
			c12.043-8.07,21.267-20.169,27.438-35.983l1.307-3.486l4.922-13.308L381.26,270.598z M322.612,315.752
			c-10.201,0-20.742-2.499-29.68-7.036l-2.463-1.25l-2.463,1.25c-8.939,4.537-19.48,7.036-29.681,7.036
			c-13.286,0-36.245-4.337-50.492-31.284c6.505,1.36,15.109,2.535,24.91,2.535c17.677,0,34.559-3.694,50.174-10.98l0.312-0.145
			l0.291-0.184c1.99-1.256,4.311-2.448,6.898-3.543l0.05-0.021l0.05,0.021c2.587,1.095,4.908,2.287,6.898,3.543l0.291,0.183
			l0.312,0.146c15.617,7.286,32.498,10.981,50.175,10.98c9.804-0.001,18.407-1.175,24.91-2.534
			C358.857,311.415,335.898,315.752,322.612,315.752z"/>
	</g>
</g>
<g id="Layer_3" display="none">
	<g display="inline">
		<ellipse fill="#FFB8C1" cx="290.238" cy="266.385" rx="14.434" ry="14.456"/>
		<path fill="#4990E2" d="M290.238,246.487c-10.96,0-19.876,8.927-19.876,19.899c0,10.972,8.917,19.899,19.876,19.899
			c10.959,0,19.876-8.927,19.876-19.899C310.114,255.414,301.197,246.487,290.238,246.487z M290.238,275.4
			c-4.958,0-8.992-4.044-8.992-9.014s4.034-9.014,8.992-9.014c4.958,0,8.992,4.044,8.992,9.014S295.196,275.4,290.238,275.4z"/>
	</g>
</g>
</svg>
