<?xml version="1.0" encoding="UTF-8" standalone="no"?>
<svg width="1024px" height="1024px" viewBox="0 0 1024 1024" version="1.1" xmlns="http://www.w3.org/2000/svg" xmlns:xlink="http://www.w3.org/1999/xlink" xmlns:sketch="http://www.bohemiancoding.com/sketch/ns">
    <!-- Generator: Sketch 3.2.1 (9977) - http://www.bohemiancoding.com/sketch -->
    <title>iTunesArtwork@2x</title>
    <desc>Created with Sketch.</desc>
    <defs>
        <rect id="path-1" x="0" y="0" width="1024" height="1024"></rect>
    </defs>
    <g id="Page-1" stroke="none" stroke-width="1" fill="none" fill-rule="evenodd" sketch:type="MSPage">
        <g id="Size-Guides" sketch:type="MSLayerGroup" transform="translate(0.000000, -124.000000)"></g>
        <g id="iTunesArtwork@2x" sketch:type="MSArtboardGroup">
            <g id="BG-+-Santa" sketch:type="MSLayerGroup">
                <rect id="BG" fill-opacity="0" fill="#D8D8D8" sketch:type="MSShapeGroup" x="0" y="0" width="1024" height="1024"></rect>
                <mask id="mask-2" sketch:name="Rectangle 12" fill="white">
                    <use xlink:href="#path-1"></use>
                </mask>
                <use id="Rectangle-12" fill="#FEFEFF" sketch:type="MSShapeGroup" xlink:href="#path-1"></use>
                <g id="Santa-2" mask="url(#mask-2)" sketch:type="MSShapeGroup">
                    <g transform="translate(-141.000000, -852.000000)">
                        <path d="M124.397129,1513.6382 C124.397129,683.695922 1181.31579,667.400289 1181.31579,1513.6382 L1181.31579,2244.86378 L124.397129,2244.86378 L124.397129,1513.6382 Z" id="Rectangle-2" stroke="#4990E2" stroke-width="36" fill="none" transform="translate(652.856459, 1564.959780) scale(1, -1) translate(-652.856459, -1564.959780) "></path>
                        <ellipse id="Oval-3" stroke="none" fill="#FFB8C1" fill-rule="evenodd" cx="316.971292" cy="1445.06574" rx="103.004785" ry="103.041833"></ellipse>
                        <ellipse id="Oval-4" stroke="none" fill="#FFB8C1" fill-rule="evenodd" cx="984.263158" cy="1445.06574" rx="103.004785" ry="103.041833"></ellipse>
                        <ellipse id="Oval-5" stroke="#4990E2" stroke-width="36" fill="#556270" fill-rule="evenodd" cx="657.334928" cy="1722.83068" rx="103.004785" ry="103.041833"></ellipse>
                        <path d="M588.675774,1389.00575 C279.679807,1532.99892 -7.41296201,1424.28415 0.195130489,1424.28415 C132.719595,1782.63 463.407894,1790.92676 658.981793,1691.77667 C854.555693,1790.92676 1185.24399,1782.63 1317.76846,1424.28415 C1325.37655,1424.28415 1038.28378,1532.99892 729.287813,1389.00575 C713.557091,1379.09082 695.343078,1369.65857 674.473609,1360.83433 C670.239285,1358.44827 666.003874,1356.0113 661.768072,1353.5225 C660.834607,1353.87586 659.905847,1354.23033 658.981779,1354.58592 C658.05773,1354.23033 657.128975,1353.87586 656.195515,1353.5225 C651.959711,1356.01131 647.724297,1358.44828 643.489966,1360.83433 C622.620508,1369.65857 604.406496,1379.09082 588.675774,1389.00575 Z" id="Path-12" stroke="#4990E2" stroke-width="36" fill="#FFFFFF" fill-rule="evenodd"></path>
                        <ellipse id="Oval-1" stroke="#4990E2" stroke-width="36" fill="#FFB8C1" fill-rule="evenodd" cx="657.334928" cy="1355.46414" rx="103.004785" ry="103.041833"></ellipse>
                        <path d="M265.4689,1171 L372.952153,1171" id="Line" stroke="#4990E2" stroke-width="36" stroke-linecap="square" fill="none"></path>
                        <path d="M932.760766,1171 L1040.24402,1171" id="Line-2" stroke="#4990E2" stroke-width="36" stroke-linecap="square" fill="none"></path>
                        <rect id="Rectangle-3" stroke="#4990E2" stroke-width="36" fill="#FFFFFF" fill-rule="evenodd" x="34.8277512" y="656.571713" width="1231.57895" height="353.926295" rx="11"></rect>
                    </g>
                </g>
            </g>
        </g>
    </g>
</svg>