<?xml version="1.0" encoding="UTF-8" standalone="no"?>
<svg width="512px" height="512px" viewBox="0 0 512 512" version="1.1" xmlns="http://www.w3.org/2000/svg" xmlns:xlink="http://www.w3.org/1999/xlink" xmlns:sketch="http://www.bohemiancoding.com/sketch/ns">
    <!-- Generator: Sketch 3.2.2 (9983) - http://www.bohemiancoding.com/sketch -->
    <title>ico_tab_gift-on-512</title>
    <desc>Created with Sketch.</desc>
    <defs></defs>
    <g id="Page-1" stroke="none" stroke-width="1" fill="none" fill-rule="evenodd" sketch:type="MSPage">
        <g id="ico_tab_gift-on-512" sketch:type="MSArtboardGroup">
            <path d="M331.213333,115.331636 C325.084444,109.722909 316.738889,107 307.755556,107 C295.264444,107 281.497778,112.251879 270.554444,122.274667 C264.192222,128.092848 258.763333,135.586667 254.874444,143.468364 C250.993333,135.586667 245.564444,128.092848 239.202222,122.274667 C228.251111,112.251879 214.476667,107 201.993333,107 C193.002222,107 184.672222,109.722909 178.543333,115.331636 C163.89,128.744485 167.296667,153.592 186.134444,170.837091 C198.905556,182.52 218.995556,190.905939 235.173333,190.905939 C242.857778,190.905939 249.647778,189.020848 254.368889,184.707636 C254.555556,184.529212 254.695556,184.319758 254.874444,184.141333 C255.053333,184.319758 255.193333,184.529212 255.38,184.707636 C260.101111,189.020848 266.898889,190.905939 274.567778,190.905939 C290.745556,190.905939 310.851111,182.52 323.637778,170.837091 C342.467778,153.592 345.866667,128.744485 331.213333,115.331636 L331.213333,115.331636 Z M240.353333,169.75103 C240.345556,169.758788 238.992222,170.581091 235.173333,170.581091 C224.362222,170.581091 209.351111,164.289697 200.243333,155.958061 C192.792222,149.146909 190.14,141.575515 190.14,136.773576 C190.14,132.499152 192.03,130.769212 192.644444,130.202909 C195.39,127.70497 199.683333,127.332606 201.993333,127.332606 C209.74,127.332606 218.373333,131.001939 225.085556,137.130424 C237.778889,148.743515 242.111111,166.275636 240.353333,169.75103 L240.353333,169.75103 Z M309.528889,155.958061 C300.413333,164.289697 285.378889,170.581091 274.567778,170.581091 C271.441111,170.581091 269.963333,170.022545 269.73,170.022545 C269.714444,170.022545 269.691111,170.030303 269.691111,170.030303 C267.7,166.035152 272.071111,148.665939 284.663333,137.145939 C291.375556,131.001939 300.016667,127.332606 307.755556,127.332606 C310.073333,127.332606 314.358889,127.70497 317.096667,130.202909 C317.726667,130.769212 319.616667,132.499152 319.616667,136.781333 C319.616667,141.583273 316.964444,149.146909 309.528889,155.958061 L309.528889,155.958061 Z" id="Fill-1" fill="#FFB8C1" sketch:type="MSShapeGroup"></path>
            <path d="M357.222222,254.393939 L271.666667,254.393939 L271.666667,184.575758 L240.555556,184.575758 L240.555556,254.393939 L155,254.393939 L155,285.424242 L240.555556,285.424242 L240.555556,355.242424 L271.666667,355.242424 L271.666667,285.424242 L357.222222,285.424242 L357.222222,254.393939" id="Fill-2" fill="#FFB8C1" sketch:type="MSShapeGroup"></path>
            <path d="M326.111111,200.090909 C334.69,200.090909 341.666667,207.049455 341.666667,215.606061 L341.666667,324.212121 C341.666667,332.768727 334.69,339.727273 326.111111,339.727273 L186.111111,339.727273 C177.532222,339.727273 170.555556,332.768727 170.555556,324.212121 L170.555556,215.606061 C170.555556,207.049455 177.532222,200.090909 186.111111,200.090909 L326.111111,200.090909 M326.111111,184.575758 L186.111111,184.575758 C168.93,184.575758 155,198.469576 155,215.606061 L155,324.212121 C155,341.348606 168.93,355.242424 186.111111,355.242424 L326.111111,355.242424 C343.292222,355.242424 357.222222,341.348606 357.222222,324.212121 L357.222222,215.606061 C357.222222,198.469576 343.292222,184.575758 326.111111,184.575758" id="Fill-3" fill="#4A90E2" sketch:type="MSShapeGroup"></path>
        </g>
    </g>
</svg>