<?xml version="1.0" encoding="UTF-8" standalone="no"?>
<svg width="512px" height="512px" viewBox="0 0 512 512" version="1.1" xmlns="http://www.w3.org/2000/svg" xmlns:xlink="http://www.w3.org/1999/xlink" xmlns:sketch="http://www.bohemiancoding.com/sketch/ns">
    <!-- Generator: Sketch 3.2.2 (9983) - http://www.bohemiancoding.com/sketch -->
    <title>ico_tab_snowflake-512</title>
    <desc>Created with Sketch.</desc>
    <defs></defs>
    <g id="Page-1" stroke="none" stroke-width="1" fill="none" fill-rule="evenodd" sketch:type="MSPage">
        <g id="ico_tab_snowflake-512" sketch:type="MSArtboardGroup" fill="#CAC8CA">
            <path d="M363.664025,277.136361 L332.603537,284.454496 C331.505245,284.710496 330.522562,285.193624 329.67283,285.832662 L294.140171,266.838617 C295.207635,263.233444 295.962952,259.489684 295.962952,255.53612 C295.962952,251.580632 295.207635,247.836872 294.140171,244.233624 L328.825025,225.699609 C329.844318,226.756331 331.060147,227.637895 332.603537,228.003609 L363.664025,235.31982 C367.964708,236.324571 372.249976,233.670256 373.263488,229.387549 C374.277001,225.099068 371.62761,220.810586 367.326927,219.805835 L348.266732,215.315248 L365.369269,206.172391 C369.25761,204.093594 370.723927,199.26809 368.642952,195.38382 C366.561976,191.499549 361.731415,190.038617 357.843074,192.115489 L340.254976,201.510496 L344.60383,183.099669 C345.617342,178.811188 342.958318,174.522707 338.665342,173.514105 C334.380074,172.501654 330.087098,175.15212 329.073586,179.440602 L321.747781,210.472421 C321.670708,210.79194 321.755488,211.09606 321.716952,211.415579 L286.612049,230.174797 C280.916342,223.33594 273.10883,218.31988 264.046952,216.483609 L264.046952,170.368962 C264.888976,169.98785 265.690537,169.508571 266.384196,168.819489 L288.95122,146.278015 C292.066903,143.15982 292.066903,138.114887 288.95122,135.006316 C285.83361,131.89197 280.785318,131.88812 277.667708,135.006316 L264.046952,148.610887 L264.046952,135.970647 C264.046952,131.568602 260.476537,128 256.067952,128 C251.65744,128 248.087025,131.568602 248.087025,135.970647 L248.087025,148.610887 L234.468196,135.006316 C231.348659,131.88812 226.300366,131.89197 223.182757,135.006316 C220.067074,138.114887 220.067074,143.15982 223.182757,146.278015 L245.749781,168.819489 C246.44344,169.508571 247.245001,169.98785 248.087025,170.372812 L248.087025,216.483609 C239.025147,218.31988 231.217635,223.33594 225.521927,230.174797 L189.746488,211.059489 C189.715659,210.863158 189.777318,210.672602 189.731074,210.472421 L182.407196,179.440602 C181.393684,175.15212 177.098781,172.501654 172.813513,173.514105 C168.520537,174.522707 165.86344,178.811188 166.876952,183.099669 L171.131391,201.108211 L154.290903,192.115489 C150.402562,190.038617 145.572001,191.499549 143.491025,195.38382 C141.411976,199.26809 142.876366,204.093594 146.764708,206.172391 L163.672635,215.205534 L144.153854,219.805835 C139.851245,220.810586 137.203781,225.099068 138.215366,229.387549 C139.228879,233.670256 143.514147,236.324571 147.816757,235.31982 L178.877245,228.003609 C180.528537,227.614797 181.82144,226.640842 182.873488,225.464782 L217.993806,244.233624 C216.926342,247.836872 216.171025,251.580632 216.171025,255.53612 C216.171025,259.489684 216.926342,263.233444 217.993806,266.838617 L182.016049,286.063639 C181.112366,285.334135 180.08344,284.741293 178.877245,284.454496 L147.816757,277.136361 C143.514147,276.133534 139.228879,278.78785 138.215366,283.068632 C137.203781,287.357113 139.851245,291.645594 144.153854,292.650346 L161.880684,296.821414 L146.764708,304.903699 C142.876366,306.980571 141.411976,311.800301 143.491025,315.692271 C145.572001,319.576541 150.402562,321.031699 154.290903,318.960602 L171.505196,309.767699 L166.876952,329.360361 C165.86344,333.641143 168.520537,337.939248 172.813513,338.944 C177.098781,339.954526 181.393684,337.300211 182.407196,333.019429 L189.731074,301.981835 C189.894854,301.306226 189.810074,300.653714 189.792732,299.991579 L225.521927,280.895519 C231.225342,287.730526 239.025147,292.752361 248.087025,294.588632 L248.087025,340.703278 C247.245001,341.084391 246.44344,341.557895 245.749781,342.250827 L223.182757,364.794226 C220.067074,367.908571 220.067074,372.951579 223.182757,376.065925 C226.300366,379.178346 231.348659,379.178346 234.468196,376.065925 L248.087025,362.459429 L248.087025,375.099669 C248.087025,379.505564 251.65744,383.070316 256.067952,383.070316 C260.476537,383.070316 264.046952,379.505564 264.046952,375.099669 L264.046952,362.459429 L277.667708,376.065925 C280.785318,379.178346 285.83361,379.178346 288.95122,376.065925 C292.066903,372.951579 292.066903,367.908571 288.95122,364.794226 L266.384196,342.250827 C265.690537,341.557895 264.888976,341.084391 264.046952,340.703278 L264.046952,294.588632 C273.10883,292.752361 280.908635,287.730526 286.612049,280.895519 L321.670708,299.631639 C321.616757,300.411188 321.560879,301.188812 321.747781,301.981835 L329.073586,333.019429 C330.087098,337.300211 334.380074,339.954526 338.665342,338.944 C342.958318,337.939248 345.617342,333.641143 344.60383,329.360361 L339.881171,309.363489 L357.843074,318.960602 C361.731415,321.031699 366.561976,319.576541 368.642952,315.692271 C370.723927,311.800301 369.25761,306.980571 365.369269,304.903699 L350.058684,296.721323 L367.326927,292.650346 C371.62761,291.645594 374.277001,287.357113 373.263488,283.068632 C372.249976,278.78785 367.964708,276.133534 363.664025,277.136361 L363.664025,277.136361 Z M278.735171,262.875429 C278.696635,263.008241 278.658098,263.141053 278.609927,263.27194 C278.220708,264.424902 277.729366,265.529744 277.168659,266.59609 C277.074245,266.769323 276.989464,266.938707 276.896976,267.110015 C276.318927,268.145564 275.671513,269.142617 274.956659,270.068451 C274.84683,270.208962 274.737001,270.33215 274.629098,270.464962 C273.85644,271.41582 273.039464,272.333955 272.128074,273.159699 C269.79661,275.276992 267.054732,276.918857 264.016123,277.992902 C262.800293,278.422135 261.544001,278.778226 260.251098,279.028451 C258.886903,279.269053 257.501513,279.44806 256.067952,279.44806 C254.632464,279.44806 253.247074,279.269053 251.882879,279.028451 C250.589976,278.778226 249.33561,278.422135 248.119781,277.992902 C245.079245,276.918857 242.337366,275.276992 240.00783,273.159699 C239.094513,272.333955 238.277537,271.41582 237.504879,270.464962 C237.396976,270.33215 237.287147,270.208962 237.179245,270.068451 C236.462464,269.142617 235.815049,268.145564 235.237001,267.110015 C235.144513,266.938707 235.059732,266.769323 234.965318,266.59609 C234.40461,265.529744 233.913269,264.424902 233.524049,263.27194 C233.475879,263.141053 233.439269,263.008241 233.398806,262.875429 C233.001879,261.655098 232.689732,260.40012 232.487415,259.100872 C232.315927,257.924812 232.129025,256.756451 232.129025,255.53612 C232.129025,254.313865 232.315927,253.145504 232.487415,251.969444 C232.689732,250.670195 233.001879,249.417143 233.398806,248.194887 C233.439269,248.062075 233.475879,247.931188 233.524049,247.798376 C233.913269,246.647338 234.40461,245.540571 234.965318,244.474226 C235.059732,244.302917 235.144513,244.131609 235.237001,243.960301 C235.815049,242.924752 236.462464,241.929624 237.179245,241.003789 C237.287147,240.861353 237.396976,240.738165 237.504879,240.605353 C238.277537,239.656421 239.094513,238.738286 240.00783,237.912541 C242.337366,235.793323 245.079245,234.153383 248.119781,233.077414 C249.33561,232.650105 250.589976,232.29209 251.882879,232.041865 C253.247074,231.801263 254.632464,231.622256 256.067952,231.622256 C257.501513,231.622256 258.886903,231.801263 260.251098,232.041865 C261.544001,232.29209 262.800293,232.650105 264.016123,233.077414 C267.054732,234.153383 269.79661,235.793323 272.128074,237.912541 C273.039464,238.738286 273.85644,239.656421 274.629098,240.605353 C274.737001,240.738165 274.84683,240.861353 274.956659,241.003789 C275.671513,241.929624 276.318927,242.924752 276.896976,243.960301 C276.989464,244.131609 277.074245,244.302917 277.168659,244.474226 C277.729366,245.540571 278.220708,246.647338 278.609927,247.798376 C278.658098,247.931188 278.696635,248.062075 278.735171,248.194887 C279.132098,249.417143 279.444245,250.670195 279.646562,251.969444 C279.818049,253.145504 280.004952,254.313865 280.004952,255.53612 C280.004952,256.756451 279.818049,257.924812 279.646562,259.100872 C279.444245,260.40012 279.132098,261.655098 278.735171,262.875429 L278.735171,262.875429 Z" id="Imported-Layers" sketch:type="MSShapeGroup"></path>
        </g>
    </g>
</svg>