<?xml version="1.0" encoding="UTF-8" standalone="no"?>
<svg width="512px" height="512px" viewBox="0 0 512 512" version="1.1" xmlns="http://www.w3.org/2000/svg" xmlns:xlink="http://www.w3.org/1999/xlink" xmlns:sketch="http://www.bohemiancoding.com/sketch/ns">
    <!-- Generator: Sketch 3.2.2 (9983) - http://www.bohemiancoding.com/sketch -->
    <title>ico_tab_calendar-512</title>
    <desc>Created with Sketch.</desc>
    <defs></defs>
    <g id="Page-1" stroke="none" stroke-width="1" fill="none" fill-rule="evenodd" sketch:type="MSPage">
        <g id="ico_tab_calendar-512" sketch:type="MSArtboardGroup" fill="#CAC8CA">
            <g id="calendar" sketch:type="MSLayerGroup" transform="translate(132.000000, 111.000000)">
                <path d="M170.666667,77.5757576 C157.835636,77.5757576 147.393939,67.1340606 147.393939,54.3030303 L147.393939,23.2727273 C147.393939,10.441697 157.835636,0 170.666667,0 C183.497697,0 193.939394,10.441697 193.939394,23.2727273 L193.939394,54.3030303 C193.939394,67.1340606 183.497697,77.5757576 170.666667,77.5757576 L170.666667,77.5757576 Z M170.666667,15.5151515 C166.392242,15.5151515 162.909091,18.998303 162.909091,23.2727273 L162.909091,54.3030303 C162.909091,58.5774545 166.392242,62.0606061 170.666667,62.0606061 C174.941091,62.0606061 178.424242,58.5774545 178.424242,54.3030303 L178.424242,23.2727273 C178.424242,18.998303 174.941091,15.5151515 170.666667,15.5151515 L170.666667,15.5151515 Z" id="Fill-1" sketch:type="MSShapeGroup"></path>
                <path d="M77.5757576,77.5757576 C64.7447273,77.5757576 54.3030303,67.1340606 54.3030303,54.3030303 L54.3030303,23.2727273 C54.3030303,10.441697 64.7447273,0 77.5757576,0 C90.4067879,0 100.848485,10.441697 100.848485,23.2727273 L100.848485,54.3030303 C100.848485,67.1340606 90.4067879,77.5757576 77.5757576,77.5757576 L77.5757576,77.5757576 Z M77.5757576,15.5151515 C73.3013333,15.5151515 69.8181818,18.998303 69.8181818,23.2727273 L69.8181818,54.3030303 C69.8181818,58.5774545 73.3013333,62.0606061 77.5757576,62.0606061 C81.8501818,62.0606061 85.3333333,58.5774545 85.3333333,54.3030303 L85.3333333,23.2727273 C85.3333333,18.998303 81.8501818,15.5151515 77.5757576,15.5151515 L77.5757576,15.5151515 Z" id="Fill-2" sketch:type="MSShapeGroup"></path>
                <path d="M248.242424,69.8181818 C248.242424,52.681697 234.348606,38.7878788 217.212121,38.7878788 L31.030303,38.7878788 C13.8938182,38.7878788 0,52.681697 0,69.8181818 L0,100.848485 L248.242424,100.848485 L248.242424,69.8181818 Z M232.727273,116.363636 L232.727273,224.969697 C232.727273,233.526303 225.768727,240.484848 217.212121,240.484848 L31.030303,240.484848 C22.473697,240.484848 15.5151515,233.526303 15.5151515,224.969697 L15.5151515,116.363636 L232.727273,116.363636 Z M248.242424,100.848485 L0,100.848485 L0,224.969697 C0,242.106182 13.8938182,256 31.030303,256 L217.212121,256 C234.348606,256 248.242424,242.106182 248.242424,224.969697 L248.242424,100.848485" id="Fill-3" sketch:type="MSShapeGroup"></path>
                <path d="M63.502585,208.259018 L64.1221996,208.135095 L63.9982767,208.382941 L118.648291,208.382941 L118.648291,195.24711 L91.0134766,195.24711 L108.486611,174.428057 C113.93922,168.355833 116.541601,162.407532 116.541601,155.591771 C116.541601,142.951631 107.866996,132.418182 88.411095,132.418182 C71.6814987,132.418182 62.0155097,142.45594 62.0155097,142.45594 L69.9465776,154.476464 C70.8140381,153.609004 77.6297996,147.041088 86.8000968,147.041088 C94.6072417,147.041088 99.5641592,152.121929 99.5641592,158.441998 C99.5641592,162.531455 97.8292381,165.133837 93.2440895,170.586446 L63.502585,205.656637 L63.502585,208.259018 Z M179.37053,147.165011 L179.37053,134.02918 L134.014735,134.02918 L132.775506,175.295517 L134.386504,176.410824 C134.63435,176.286901 139.839113,173.808442 150.744331,173.808442 C163.012702,173.808442 167.96962,178.393591 167.96962,184.713661 C167.96962,191.281576 163.384471,195.990648 153.594559,195.990648 C142.441495,195.990648 133.890812,188.431349 133.890812,188.431349 L126.331513,200.080105 C126.331513,200.080105 136.988886,209.993939 153.966328,209.993939 C174.165766,209.993939 183.955678,199.212644 183.955678,185.581121 C183.955678,171.701752 176.272456,161.540072 154.46202,161.540072 C151.859638,161.540072 149.629025,161.787918 147.274489,162.035763 L147.770181,147.165011 L179.37053,147.165011 Z" id="25" sketch:type="MSShapeGroup"></path>
            </g>
        </g>
    </g>
</svg>