<?xml version="1.0" encoding="UTF-8" standalone="no"?>
<svg width="512px" height="512px" viewBox="0 0 512 512" version="1.1" xmlns="http://www.w3.org/2000/svg" xmlns:xlink="http://www.w3.org/1999/xlink" xmlns:sketch="http://www.bohemiancoding.com/sketch/ns">
    <!-- Generator: Sketch 3.2.2 (9983) - http://www.bohemiancoding.com/sketch -->
    <title>ico_tab_gift-512</title>
    <desc>Created with Sketch.</desc>
    <defs></defs>
    <g id="Page-1" stroke="none" stroke-width="1" fill="none" fill-rule="evenodd" sketch:type="MSPage">
        <g id="ico_tab_gift-512" sketch:type="MSArtboardGroup" fill="#CAC8CA">
            <path d="M357.111111,254.272727 L271.555556,254.272727 L271.555556,184.454545 L240.444444,184.454545 L240.444444,254.272727 L154.888889,254.272727 L154.888889,285.30303 L240.444444,285.30303 L240.444444,355.121212 L271.555556,355.121212 L271.555556,285.30303 L357.111111,285.30303 L357.111111,254.272727 M326,184.454545 L301.733333,184.454545 C309.837778,180.948121 317.506667,176.216 323.526667,170.715879 C342.356667,153.470788 345.755556,128.623273 331.102222,115.210424 C324.973333,109.601697 316.627778,106.878788 307.644444,106.878788 C295.153333,106.878788 281.386667,112.130667 270.443333,122.153455 C264.081111,127.971636 258.652222,135.465455 254.763333,143.347152 C250.882222,135.465455 245.453333,127.971636 239.091111,122.153455 C228.14,112.130667 214.365556,106.878788 201.882222,106.878788 C192.891111,106.878788 184.561111,109.601697 178.432222,115.210424 C163.778889,128.623273 167.185556,153.470788 186.023333,170.715879 C192.035556,176.216 199.696667,180.948121 207.793333,184.454545 L186,184.454545 C168.818889,184.454545 154.888889,198.348364 154.888889,215.484848 L154.888889,324.090909 C154.888889,341.227394 168.818889,355.121212 186,355.121212 L326,355.121212 C343.181111,355.121212 357.111111,341.227394 357.111111,324.090909 L357.111111,215.484848 C357.111111,198.348364 343.181111,184.454545 326,184.454545 L326,184.454545 Z M284.552222,137.024727 C291.264444,130.880727 299.905556,127.211394 307.644444,127.211394 C309.962222,127.211394 314.247778,127.583758 316.985556,130.081697 C317.615556,130.648 319.505556,132.377939 319.505556,136.660121 C319.505556,141.462061 316.853333,149.025697 309.417778,155.836848 C300.302222,164.168485 285.267778,170.459879 274.456667,170.459879 C271.33,170.459879 269.852222,169.901333 269.618889,169.901333 C269.603333,169.901333 269.58,169.909091 269.58,169.909091 C267.588889,165.913939 271.96,148.544727 284.552222,137.024727 L284.552222,137.024727 Z M190.028889,136.652364 C190.028889,132.377939 191.918889,130.648 192.533333,130.081697 C195.278889,127.583758 199.572222,127.211394 201.882222,127.211394 C209.628889,127.211394 218.262222,130.880727 224.974444,137.009212 C237.667778,148.622303 242,166.154424 240.242222,169.629818 C240.234444,169.637576 238.881111,170.459879 235.062222,170.459879 C224.251111,170.459879 209.24,164.168485 200.132222,155.836848 C192.681111,149.025697 190.028889,141.454303 190.028889,136.652364 L190.028889,136.652364 Z" id="gift" sketch:type="MSShapeGroup"></path>
        </g>
    </g>
</svg>