<?xml version="1.0" encoding="UTF-8" standalone="no"?>
<svg width="512px" height="512px" viewBox="0 0 512 512" version="1.1" xmlns="http://www.w3.org/2000/svg" xmlns:xlink="http://www.w3.org/1999/xlink" xmlns:sketch="http://www.bohemiancoding.com/sketch/ns">
    <!-- Generator: Sketch 3.2.2 (9983) - http://www.bohemiancoding.com/sketch -->
    <title>ico_nav_menu-512</title>
    <desc>Created with Sketch.</desc>
    <defs></defs>
    <g id="Page-1" stroke="none" stroke-width="1" fill="none" fill-rule="evenodd" sketch:type="MSPage">
        <g id="ico_nav_menu-512" sketch:type="MSArtboardGroup" fill="#494849">
            <g id="Shape-+-Shape-+-Shape" sketch:type="MSLayerGroup" transform="translate(256.000000, 256.000000) rotate(-270.000000) translate(-256.000000, -256.000000) translate(156.000000, 236.000000)">
                <path d="M100,8.75 C106.1875,8.75 111.25,13.8125 111.25,20 C111.25,26.1875 106.1875,31.25 100,31.25 C93.8125,31.25 88.75,26.1875 88.75,20 C88.75,13.8125 93.8125,8.75 100,8.75 L100,8.75 Z M100,0 C88.9375,0 80,8.9375 80,20 C80,31.0625 88.9375,40 100,40 C111.0625,40 120,31.0625 120,20 C120,8.9375 111.0625,0 100,0 L100,0 L100,0 Z" id="Shape" sketch:type="MSShapeGroup"></path>
                <path d="M20.25,8.75 C26.4375,8.75 31.5,13.8125 31.5,20 C31.5,26.1875 26.4375,31.25 20.25,31.25 C14.0625,31.25 9,26.1875 9,20 C9,13.8125 14.0625,8.75 20.25,8.75 L20.25,8.75 Z M20.25,0 C9.1875,0 0.25,8.9375 0.25,20 C0.25,31.0625 9.1875,40 20.25,40 C31.3125,40 40.25,31.0625 40.25,20 C40.25,8.9375 31.25,0 20.25,0 L20.25,0 L20.25,0 Z" id="Shape" sketch:type="MSShapeGroup"></path>
                <path d="M180,8.75 C186.1875,8.75 191.25,13.8125 191.25,20 C191.25,26.1875 186.1875,31.25 180,31.25 C173.8125,31.25 168.75,26.1875 168.75,20 C168.75,13.8125 173.8125,8.75 180,8.75 L180,8.75 Z M180,0 C168.9375,0 160,8.9375 160,20 C160,31.0625 168.9375,40 180,40 C191.0625,40 200,31.0625 200,20 C200,8.9375 191.0625,0 180,0 L180,0 L180,0 Z" id="Shape" sketch:type="MSShapeGroup"></path>
            </g>
        </g>
    </g>
</svg>