<?xml version="1.0" encoding="utf-8"?>
<!-- Generator: Adobe Illustrator 17.0.0, SVG Export Plug-In . SVG Version: 6.00 Build 0)  -->
<!DOCTYPE svg PUBLIC "-//W3C//DTD SVG 1.1//EN" "http://www.w3.org/Graphics/SVG/1.1/DTD/svg11.dtd">
<svg version="1.1" xmlns="http://www.w3.org/2000/svg" xmlns:xlink="http://www.w3.org/1999/xlink" x="0px" y="0px" width="580px"
	 height="480px" viewBox="0 0 580 480" enable-background="new 0 0 580 480" xml:space="preserve">
<g id="Layer_1" xmlns:sketch="http://www.bohemiancoding.com/sketch/ns">
	<title>santa580x480</title>
	<desc>Created with Sketch.</desc>
	<g id="Page-1" sketch:type="MSPage">
		<g id="santa580x480" sketch:type="MSArtboardGroup">
			<g id="Santa-2" transform="translate(158.000000, 9.000000)" sketch:type="MSLayerGroup">
				<path fill="#4990E2" d="M134.161,387.608c-0.005,0-0.007,0-0.013,0c-20.98-0.003-40.581-8.475-55.192-23.854
					c-16.252-17.107-24.843-41.235-24.843-69.777V185.946h158.992v108.031c0,28.775-8.442,52.972-24.413,69.977
					C174.366,379.207,154.998,387.608,134.161,387.608z M64.999,196.831v97.147c0,25.698,7.555,47.234,21.849,62.28
					c12.536,13.195,29.335,20.463,47.303,20.467c0.003,0,0.007,0,0.011,0c17.801,0,34.349-7.181,46.597-20.221
					c14.041-14.949,21.463-36.57,21.463-62.525v-97.147H64.999z"/>
				<ellipse id="Oval-3" sketch:type="MSShapeGroup" fill="#FFB8C1" cx="86.542" cy="269.956" rx="14.434" ry="14.456">
				</ellipse>
				<ellipse id="Oval-4" sketch:type="MSShapeGroup" fill="#FFB8C1" cx="180.051" cy="269.956" rx="14.434" ry="14.456">
				</ellipse>
				<g>
					<ellipse id="Oval-5_1_" sketch:type="MSShapeGroup" fill="#556270" cx="134.238" cy="308.926" rx="14.434" ry="14.456">
					</ellipse>
					<path fill="#4990E2" d="M134.238,328.824c-10.96,0-19.876-8.927-19.876-19.899s8.917-19.899,19.876-19.899
						c10.959,0,19.876,8.927,19.876,19.899S145.197,328.824,134.238,328.824z M134.238,299.911c-4.958,0-8.992,4.044-8.992,9.014
						s4.034,9.014,8.992,9.014c4.958,0,8.992-4.044,8.992-9.014S139.196,299.911,134.238,299.911z"/>
				</g>
				<g>
					<path id="Rectangle-1_1_" sketch:type="MSShapeGroup" fill="#FFB8C1" d="M61.001,163.104
						c16.974-117.9,220.594-142.651,226.54,15.3c-12.277-5.001-18.853-2.465-25.58,0c0-59.373-54.224-35.189-54.224-15.3
						C209.845,163.104,56.335,163.104,61.001,163.104z"/>
					<path fill="#4990E2" d="M293.296,186.625l-7.809-3.18c-4.088-1.665-7.642-2.474-10.868-2.474
						c-3.848,0-6.942,1.134-10.523,2.447l-7.579,2.777v-7.79c0-20.65-6.911-32.022-19.46-32.022c-11.846,0-23.88,9.729-23.88,16.722
						v5.442H54.719l0.895-6.218c4.276-29.699,19.827-55.282,44.973-73.985c22.981-17.093,51.596-26.506,80.574-26.506
						c29.209,0,56.051,9.904,75.58,27.888c22.302,20.537,34.832,51.131,36.238,88.474L293.296,186.625z M237.058,135.498
						c8.764,0,16.203,3.553,21.514,10.275c4.802,6.078,7.664,14.55,8.541,25.247c2.265-0.555,4.741-0.933,7.507-0.933
						c2.27,0,4.597,0.254,7.012,0.771c-2.601-30.841-13.677-56.008-32.265-73.124c-17.514-16.128-41.737-25.01-68.207-25.01
						c-26.267,0-53.268,8.877-74.078,24.355c-14.881,11.068-33.339,30.364-39.605,60.585h135.707
						C206.959,145.967,222.131,135.498,237.058,135.498z"/>
				</g>
				<rect x="73.883" y="226.391" fill="#4990E2" width="25.946" height="10.884"/>
				<rect x="167.391" y="226.391" fill="#4990E2" width="25.946" height="10.884"/>
				<g>
					<ellipse id="Oval-2_1_" sketch:type="MSShapeGroup" fill="#FFFFFF" cx="276.07" cy="159.333" rx="27.927" ry="27.97">
					</ellipse>
					<path fill="#4990E2" d="M276.07,192.745c-18.4,0-33.369-14.989-33.369-33.412c0-18.424,14.969-33.412,33.369-33.412
						c18.4,0,33.369,14.989,33.369,33.412C309.44,177.757,294.47,192.745,276.07,192.745z M276.07,136.805
						c-12.398,0-22.485,10.106-22.485,22.528s10.087,22.528,22.485,22.528c12.398,0,22.485-10.106,22.485-22.528
						S288.469,136.805,276.07,136.805z"/>
				</g>
				<g>
					<path id="Rectangle-3_1_" sketch:type="MSShapeGroup" fill="#FFFFFF" d="M54.488,159.333h157.617
						c4.133,0,7.483,3.35,7.483,7.483v34.689c0,4.133-3.35,7.483-7.483,7.483H54.488c-4.133,0-7.483-3.35-7.483-7.483v-34.689
						C47.005,162.683,50.355,159.333,54.488,159.333z"/>
					<path fill="#4990E2" d="M212.105,214.43H54.488c-7.127,0-12.925-5.798-12.925-12.925v-34.689
						c0-7.127,5.798-12.925,12.925-12.925h157.617c7.127,0,12.925,5.798,12.925,12.925v34.689
						C225.03,208.632,219.232,214.43,212.105,214.43z M54.488,164.775c-1.125,0-2.041,0.915-2.041,2.041v34.689
						c0,1.125,0.915,2.041,2.041,2.041h157.617c1.125,0,2.041-0.915,2.041-2.041v-34.689c0-1.125-0.915-2.041-2.041-2.041H54.488z"
						/>
				</g>
			</g>
		</g>
	</g>
</g>
<g id="Layer_2">
	<g>
		<path id="Path-12_1_" sketch:type="MSShapeGroup" fill="#FFFFFF" d="M282.616,271.091c-43.3,20.202-83.531,4.949-82.465,4.949
			c18.571,50.275,64.911,51.439,92.317,37.528c27.406,13.91,73.746,12.746,92.317-37.528c1.066,0-39.165,15.252-82.465-4.949
			c-2.204-1.391-4.757-2.714-7.681-3.952c-0.593-0.335-1.187-0.677-1.78-1.026c-0.131,0.05-0.261,0.099-0.39,0.149
			c-0.13-0.05-0.26-0.1-0.39-0.149c-0.594,0.349-1.187,0.691-1.78,1.026C287.373,268.377,284.821,269.7,282.616,271.091z"/>
		<path fill="#4990E2" d="M324.612,326.636c-10.957,0-22.264-2.482-32.144-7.024c-9.879,4.542-21.186,7.024-32.144,7.024
			c-13.624,0-26.475-3.786-37.164-10.948c-12.042-8.069-21.265-20.164-27.435-35.973l-1.924-1.211l0.625-2.253l-4.926-13.318
			l12.172,7.665h2.269l0.457,1.237c4.149,1.322,15.155,4.284,30.343,4.284c15.963,0,31.193-3.304,45.274-9.821
			c2.336-1.449,4.98-2.809,7.867-4.046c0.479-0.272,0.958-0.548,1.436-0.83l2.24-1.317l0.909,0.341l0.909-0.341l2.24,1.317
			c0.478,0.282,0.958,0.558,1.436,0.83c2.888,1.237,5.531,2.597,7.866,4.046c14.082,6.517,29.312,9.821,45.274,9.821
			c15.187-0.001,26.193-2.962,30.343-4.284l0.457-1.237h2.267l12.182-7.686l-4.922,13.308l0.649,2.245l-1.956,1.24
			c-6.17,15.814-15.395,27.913-27.438,35.983C351.089,322.851,338.237,326.636,324.612,326.636z M292.468,307.466l2.463,1.25
			c8.939,4.537,19.479,7.036,29.68,7.036c13.286,0,36.245-4.337,50.492-31.283c-6.503,1.359-15.106,2.534-24.91,2.534
			c-17.676,0.001-34.558-3.694-50.175-10.98l-0.312-0.146l-0.291-0.183c-1.99-1.256-4.311-2.448-6.898-3.543l-0.05-0.021
			l-0.05,0.021c-2.587,1.095-4.908,2.287-6.898,3.543l-0.291,0.184l-0.312,0.146c-15.616,7.286-32.497,10.98-50.175,10.98
			c-9.801,0-18.405-1.175-24.91-2.535c14.247,26.947,37.206,31.284,50.492,31.284c10.201,0,20.741-2.499,29.681-7.036
			L292.468,307.466z"/>
	</g>
</g>
<g id="Layer_3">
	<g>
		<ellipse id="Oval-1_1_" sketch:type="MSShapeGroup" fill="#FFB8C1" cx="292.238" cy="266.385" rx="14.434" ry="14.456">
		</ellipse>
		<path fill="#4990E2" d="M292.238,286.284c-10.96,0-19.876-8.927-19.876-19.899s8.917-19.899,19.876-19.899
			c10.959,0,19.876,8.927,19.876,19.899S303.197,286.284,292.238,286.284z M292.238,257.371c-4.958,0-8.992,4.044-8.992,9.014
			s4.034,9.014,8.992,9.014c4.958,0,8.992-4.044,8.992-9.014S297.196,257.371,292.238,257.371z"/>
	</g>
</g>
</svg>
